<?xml version="1.0" standalone="no"?>
<!DOCTYPE svg PUBLIC "-//W3C//DTD SVG 20010904//EN"
 "http://www.w3.org/TR/2001/REC-SVG-20010904/DTD/svg10.dtd">
<svg version="1.0" xmlns="http://www.w3.org/2000/svg"
 width="820.000000pt" height="820.000000pt" viewBox="0 0 820.000000 820.000000"
 preserveAspectRatio="xMidYMid meet">
<metadata>
Created by potrace 1.11, written by Peter Selinger 2001-2013
</metadata>
<g transform="translate(0.000000,820.000000) scale(0.100000,-0.100000)"
fill="#000000" stroke="none">
<path d="M5045 4865 c-285 -30 -343 -47 -423 -120 -61 -54 -89 -122 -96 -230
-9 -130 -38 -184 -180 -333 -63 -65 -125 -136 -138 -158 -59 -93 -64 -176 -20
-321 56 -184 54 -218 -17 -256 -80 -44 -130 -85 -151 -126 -33 -66 -117 -330
-134 -421 -8 -47 -22 -128 -31 -180 -9 -52 -41 -198 -72 -325 -70 -293 -84
-368 -72 -408 5 -18 9 -33 9 -34 0 -1 -33 10 -72 24 -191 66 -340 83 -392 42
-35 -27 -100 -124 -137 -204 -63 -134 -61 -242 7 -343 65 -98 168 -162 442
-277 l124 -52 -359 -7 c-412 -7 -930 -23 -1082 -32 l-105 -6 80 60 c88 66 203
182 253 255 73 107 136 276 162 437 14 81 19 344 7 356 -4 3 -22 1 -40 -6
-165 -65 -301 -140 -399 -221 -33 -28 -62 -49 -63 -47 -1 1 -17 48 -34 103
-37 118 -92 236 -158 335 l-47 71 -24 -23 c-36 -34 -139 -190 -185 -282 -22
-44 -54 -124 -72 -178 l-32 -98 -40 41 c-52 54 -177 148 -265 200 -75 44 -247
119 -272 119 -10 0 -16 -17 -20 -61 -3 -33 -8 -63 -11 -66 -2 -3 -28 1 -55 8
-28 7 -53 11 -55 8 -3 -2 0 -53 5 -113 18 -188 77 -380 163 -526 80 -137 230
-278 383 -361 35 -19 63 -37 63 -40 0 -3 -80 -11 -177 -18 -248 -17 -547 -47
-753 -77 -603 -86 -725 -187 -337 -278 415 -97 1170 -161 2452 -208 473 -17
2377 -17 2850 0 1276 47 2059 113 2455 209 276 66 291 133 48 204 l-78 23 0
567 0 567 -37 14 c-56 20 -358 18 -398 -2 l-30 -15 -3 -528 c-2 -493 -3 -527
-20 -527 -9 0 -82 7 -161 15 -194 21 -633 55 -702 55 -31 0 -59 3 -62 7 -4 3
33 32 81 63 186 121 283 262 299 434 12 139 -50 224 -192 262 -92 25 -353 14
-505 -22 -20 -4 -16 2 23 36 63 56 71 88 64 265 -4 112 -12 164 -36 260 -42
160 -108 456 -131 580 -17 94 -81 279 -130 376 -12 24 -42 72 -66 105 l-43 61
41 94 c49 112 59 179 33 245 -9 24 -55 92 -101 150 -99 124 -124 174 -242 486
-105 275 -110 286 -158 332 -70 68 -194 86 -429 61z m-267 -762 c91 -40 177
-56 302 -56 136 0 225 19 321 67 l67 34 6 -30 c20 -100 -8 -239 -65 -319 -38
-54 -113 -125 -157 -151 -83 -46 -204 -59 -307 -33 -125 33 -222 120 -282 252
-31 70 -42 188 -24 269 l13 55 36 -32 c20 -18 60 -43 90 -56z m1013 -1561
c-19 -2 -50 -1 -68 3 -29 5 -32 8 -23 26 6 11 28 37 48 59 l37 38 21 -61 21
-62 -36 -3z m-1451 31 c0 -8 -11 -10 -37 -6 -21 3 -39 6 -39 7 -1 1 2 11 7 24
9 23 9 23 39 5 16 -9 30 -23 30 -30z m-3164 -442 c55 -26 125 -64 155 -83 81
-52 202 -152 234 -193 24 -32 26 -42 20 -81 l-6 -45 -72 68 c-40 37 -104 90
-144 116 -78 52 -233 128 -300 148 l-43 12 0 60 0 59 28 -7 c15 -3 72 -28 128
-54z m3889 -33 c53 -47 49 -134 -8 -168 -18 -11 -42 -20 -55 -20 -69 0 -123
72 -102 136 24 71 111 98 165 52z m949 -81 c53 -30 78 -80 79 -164 l2 -67 -79
-19 c-43 -10 -80 -16 -82 -14 -2 2 -1 67 3 145 7 159 7 159 77 119z m-1934
-112 c0 -63 -2 -115 -4 -115 -3 0 -52 24 -110 53 l-106 52 47 47 c58 55 97 77
141 78 l32 0 0 -115z m1816 -870 l34 -14 0 -215 0 -215 -32 -17 c-57 -30 -86
-34 -119 -17 -16 8 -87 29 -157 46 -70 17 -141 40 -158 52 -17 11 -78 31 -137
45 -59 13 -107 26 -107 29 0 3 28 62 62 131 35 69 63 126 63 126 0 1 22 -2 48
-6 34 -5 52 -3 61 5 7 7 54 14 111 17 96 6 165 24 181 49 8 14 101 5 150 -16z
m-1561 -129 c149 -53 278 -100 288 -104 14 -6 -2 -19 -75 -65 -97 -61 -178
-90 -292 -106 -95 -14 -123 -6 -145 38 -20 39 -66 215 -77 295 -6 45 -5 49 12
44 11 -3 141 -49 289 -102z"/>
</g>
</svg>
